# xmcd
#
# Track frame offsets: 
#        150
#        13698
#        26421
#        38529
#        53092
#        68245
#        86240
#        101646
#        113906
#        127917
#        138495
#        158273
#        169359
#        182737
#        197760
#        209480
#
# Disc length: 2923 seconds
#
# Revision: 1
# Processed by: cddbd v1.5.2PL0 Copyright (c) Steve Scherf et al.
# Submitted via: ExactAudioCopy v1.0b3
#
DISCID=d60b6910
DTITLE=Kenny Rogers - The Best Of
DYEAR=2010
DGENRE=Country
TTITLE0=Ruby don't take your love to town
TTITLE1=Reuben James
TTITLE2=Me and Bobby McGee
TTITLE3=Sunshine
TTITLE4=Just dropped In
TTITLE5=Something's burning
TTITLE6=For the Good times
TTITLE7=Elvira
TTITLE8=Loser
TTITLE9=Ticket to nowhere
TTITLE10=Lay it Down
TTITLE11=Always Leaving, always Gone
TTITLE12=Shine on Ruby Mountain
TTITLE13=All God's lonely chieldren
TTITLE14=Girl, get a hold of yourself
TTITLE15=New design
EXTD=
EXTT0=
EXTT1=
EXTT2=
EXTT3=
EXTT4=
EXTT5=
EXTT6=
EXTT7=
EXTT8=
EXTT9=
EXTT10=
EXTT11=
EXTT12=
EXTT13=
EXTT14=
EXTT15=
PLAYORDER=
